<svg xmlns="http://www.w3.org/2000/svg" viewBox="0 0 64 64" fill="none" role="img" aria-label="LetzTalk logo">
  <defs>
    <linearGradient id="ltg" x1="10" y1="10" x2="54" y2="54" gradientUnits="userSpaceOnUse">
      <stop offset="0" stop-color="#EC4899"/>
      <stop offset="0.5" stop-color="#8B5CF6"/>
      <stop offset="1" stop-color="#3B82F6"/>
    </linearGradient>
    <linearGradient id="bgGrad" x1="0" y1="0" x2="64" y2="64" gradientUnits="userSpaceOnUse">
      <stop offset="0" stop-color="#1F2937" />
      <stop offset="1" stop-color="#0F172A" />
    </linearGradient>
  </defs>

  <!-- Background circle -->
  <circle cx="32" cy="32" r="30" fill="url(#bgGrad)" opacity="0.9"/>
  <circle cx="32" cy="32" r="30" stroke="url(#ltg)" stroke-width="2" opacity="0.4"/>

  <path
    d="M18 12h28c6.627 0 12 5.373 12 12v14c0 6.627-5.373 12-12 12H33.8L24 56v-6H18c-6.627 0-12-5.373-12-12V24c0-6.627 5.373-12 12-12Z"
    stroke="url(#ltg)"
    stroke-width="3.2"
    stroke-linecap="round"
    stroke-linejoin="round"
  />

  <rect x="28" y="20" width="8" height="16" rx="4" fill="url(#ltg)" opacity="0.9"/>
  <path
    d="M24 33.5c0 4.418 3.582 8 8 8s8-3.582 8-8M32 41.5v5M28.5 46.5h7"
    stroke="url(#ltg)"
    stroke-width="2.8"
    stroke-linecap="round"
    stroke-linejoin="round"
    opacity="0.85"
  />

  <circle cx="47.5" cy="18.5" r="3" fill="url(#ltg)" opacity="0.8"/>
</svg>
